HIERARCHY
ROOT hip
{
	OFFSET 0.000000 0.000000 0.000000 
	CHANNELS 6 Xposition Yposition Zposition Xrotation Zrotation Yrotation
	JOINT abdomen
	{
		OFFSET 0.000000 3.402643 0.000000 
		CHANNELS 3 Xrotation Zrotation Yrotation
		JOINT chest
		{
			OFFSET 0.000000 8.438565 -0.680529 
			CHANNELS 3 Xrotation Zrotation Yrotation
			JOINT neck
			{
				OFFSET 0.000000 10.207942 -0.272212 
				CHANNELS 3 Xrotation Zrotation Yrotation
				JOINT head
				{
					OFFSET 0.000000 3.130431 0.000000 
					CHANNELS 3 Xrotation Zrotation Yrotation
					End Site
					{
						OFFSET 0.000000 3.130435 0.000000 
					}
				}
			}
			JOINT lCollar
			{
				OFFSET 3.470700 6.669187 -0.816635 
				CHANNELS 3 Yrotation Zrotation Xrotation
				JOINT lShldr
				{
					OFFSET 3.198488 0.000000 0.000000 
					CHANNELS 3 Zrotation Yrotation Xrotation
					JOINT lForeArm
					{
						OFFSET 10.139888 0.000000 0.000000 
						CHANNELS 3 Yrotation Zrotation Xrotation
						JOINT lHand
						{
							OFFSET 8.370511 0.000000 0.000000 
							CHANNELS 3 Zrotation Yrotation Xrotation
							End Site
							{
								OFFSET 4.083176 0.000000 0.000000 
							}
						}
					}
				}
			}
			JOINT rCollar
			{
				OFFSET -3.470700 6.669187 -0.816635 
				CHANNELS 3 Yrotation Zrotation Xrotation
				JOINT rShldr
				{
					OFFSET -3.198488 0.000000 0.000000 
					CHANNELS 3 Zrotation Yrotation Xrotation
					JOINT rForeArm
					{
						OFFSET -10.139888 0.000000 0.000000 
						CHANNELS 3 Yrotation Zrotation Xrotation
						JOINT rHand
						{
							OFFSET -8.370511 0.000000 0.000000 
							CHANNELS 3 Zrotation Yrotation Xrotation
							End Site
							{
								OFFSET -4.083176 0.000000 0.000000 
							}
						}
					}
				}
			}
		}
	}
	JOINT lThigh
	{
		OFFSET 5.308129 -1.633274 1.361059 
		CHANNELS 3 Xrotation Zrotation Yrotation
		JOINT lShin
		{
			OFFSET -2.041588 -20.007561 0.000000 
			CHANNELS 3 Xrotation Zrotation Yrotation
			JOINT lFoot
			{
				OFFSET 0.000000 -19.190928 -1.224953 
				CHANNELS 3 Xrotation Yrotation Zrotation
				End Site
				{
					OFFSET 0.000000 -2.449906 4.627600 
				}
			}
		}
	}
	JOINT rThigh
	{
		OFFSET -5.308129 -1.633274 1.361059 
		CHANNELS 3 Xrotation Zrotation Yrotation
		JOINT rShin
		{
			OFFSET 2.041588 -20.007561 0.000000 
			CHANNELS 3 Xrotation Zrotation Yrotation
			JOINT rFoot
			{
				OFFSET 0.000000 -19.190928 -1.224953 
				CHANNELS 3 Xrotation Yrotation Zrotation
				End Site
				{
					OFFSET 0.000000 -2.449906 4.627600 
				}
			}
		}
	}
}
MOTION
Frames: 9
Frame Time: 0.033333
-0.280425 53.082558 3.078403 7.714845 -0.722656 -16.816528 18.875959 -7.092680 0.551998 -24.833986 14.746095 8.652344 51.553619 8.070152 2.616707 -49.433598 -14.824217 -9.628907 2.000000 -2.000000 0.000000 -87.304688 11.650391 -52.390606 -139.404739 13.897710 -2.625009 70.121590 34.227219 54.825626 -2.000000 2.000000 0.000000 64.160156 -2.089844 -47.373043 132.600845 26.487247 -17.024256 5.069525 -43.083458 -115.936584 -13.006547 3.905867 7.846933 17.096565 -5.550057 -1.753952 0.032442 6.281783 5.386697 4.798689 -1.491998 -12.511878 23.664640 5.304927 2.717090 29.110943 -11.932693 -5.755183 
-0.402028 52.861134 5.952576 7.363281 1.210938 -14.619141 20.144100 -6.664940 -1.645901 -25.976564 12.832032 7.382812 51.553619 8.070152 2.616707 -48.203129 -15.439451 -8.398439 2.000000 -2.000000 0.000000 -85.878906 17.099609 -50.631893 -135.629501 13.727388 -3.703259 71.053848 34.397217 54.910988 -2.000000 2.000000 0.000000 64.365234 -1.884766 -45.576492 132.384598 26.494789 -16.575581 5.270681 -43.201988 -115.748268 -9.014801 1.198487 7.227788 15.501792 -5.682520 -1.951108 -3.365208 5.523314 4.289041 7.034519 -3.093776 -11.235589 21.735434 5.368360 2.491985 35.577873 -14.874612 -6.896204 
-0.538355 52.513176 8.579142 7.197265 3.134766 -12.607423 21.180620 -6.313380 -3.722765 -26.914064 10.742188 6.044921 51.553619 8.070152 2.616707 -47.998051 -15.097655 -6.533205 2.000000 -2.000000 0.000000 -84.062500 23.183594 -48.218815 -131.996841 13.462650 -4.561065 71.953903 34.379684 54.360031 -2.000000 2.000000 0.000000 63.925781 -2.148438 -43.388859 132.967560 26.372635 -17.078634 4.793192 -43.081680 -115.779724 -5.830204 -1.464344 6.027261 13.921167 -5.789107 -1.753983 -6.607633 5.007348 3.700098 -7.222791 -8.314310 -8.367286 40.525158 4.205229 3.624875 29.831791 -15.101345 -6.882497 
-0.837878 52.149414 10.843989 7.041016 4.707032 -10.839042 22.328547 -5.768273 -5.733769 -27.656250 8.818360 4.785156 51.553619 8.070152 2.616707 -49.707031 -13.564452 -3.544923 2.000000 -2.000000 0.000000 -82.392578 29.580074 -44.599609 -128.180328 12.949242 -5.326637 71.942940 33.693863 52.903965 -2.000000 2.000000 0.000000 63.603516 -1.875000 -41.376953 132.813126 26.494932 -17.184540 5.097279 -43.073868 -115.928688 -2.952869 -3.423124 4.757825 13.214137 -6.197524 -1.594694 -8.668724 4.331029 3.384028 -23.768843 -12.841519 -3.961040 59.143311 2.861181 4.513969 18.268179 -14.590116 -4.601735 
-1.048247 51.856812 12.830911 6.865235 5.917970 -9.129852 23.268280 -5.459651 -7.674310 -28.388672 7.080078 3.769532 51.553619 8.070152 2.616707 -51.835941 -11.103515 -0.585938 2.000000 -2.000000 0.000000 -80.966797 36.386715 -39.121094 -125.001434 12.705956 -5.990647 70.938789 32.844208 51.064678 -2.000000 2.000000 0.000000 62.714844 -1.474609 -39.638924 132.553986 26.348433 -16.782404 4.950015 -43.063145 -116.059082 -0.711038 -4.671208 3.729142 13.564673 -6.199698 -1.763817 -9.696728 4.361560 3.418489 -29.812035 -13.133882 -2.580722 57.381252 2.705045 4.763394 11.567549 -16.617245 -3.321979 
-1.420402 51.651215 14.797534 6.708985 6.103516 -8.231382 24.002281 -4.977073 -9.556622 -28.925783 5.849610 2.812500 51.553619 8.070152 2.616707 -52.880863 -8.564452 1.171875 2.000000 -2.000000 0.000000 -76.093750 32.382813 -33.876957 -124.670006 12.866753 -6.087760 70.013260 31.960220 49.560558 -2.000000 2.000000 0.000000 61.640625 -1.328125 -38.134991 132.240311 26.667810 -16.713717 5.106491 -43.073929 -115.928299 1.394893 -4.710478 2.544741 14.662064 -6.191809 -1.699141 -9.443270 4.448609 2.865055 -32.361027 -11.747557 -2.714726 48.599239 3.415234 4.173363 6.855502 -19.182346 -3.541674 
-1.946131 51.595860 16.757839 6.337891 5.585938 -7.459986 24.686142 -4.579605 -11.302461 -29.121096 5.156250 2.080078 51.553619 8.070152 2.616707 -52.500004 -6.308593 1.269531 2.000000 -2.000000 0.000000 -73.125000 29.404295 -29.052736 -124.285316 12.694437 -6.195301 68.869324 30.751278 49.237942 -2.000000 2.000000 0.000000 61.230469 -1.123047 -36.318359 131.643036 26.695686 -16.483292 4.968557 -43.053505 -116.048492 3.688789 -4.020410 1.531464 15.889524 -6.152249 -1.838161 -7.299456 4.558520 2.252357 -31.147943 -7.576739 -7.358030 37.534966 4.374575 3.072387 5.914992 -19.870070 -7.309273 
-2.712811 52.022881 18.824314 5.986328 4.541016 -6.893758 24.596157 -4.588931 -12.659700 -28.388674 6.728516 2.001953 51.553619 8.070152 2.616707 -52.138672 -5.976562 -0.185547 2.000000 -2.000000 0.000000 -72.236328 27.666016 -24.595074 -123.879128 12.554112 -6.253645 67.504700 30.274466 49.738552 -2.000000 2.000000 0.000000 59.541012 -0.576172 -36.328083 130.874161 26.827866 -16.184750 5.280638 -43.143459 -115.728317 6.049601 -2.361076 1.217746 16.990740 -6.135267 -1.966734 -2.822851 3.919327 1.735659 -22.699715 -3.376932 -13.393048 14.276900 5.487995 1.539178 13.855528 -15.350137 -11.680932 
-3.401747 52.070339 21.173449 5.625000 3.134766 -6.542435 23.782244 -5.124731 -13.467244 -26.748047 10.214844 2.529297 51.553619 8.070152 2.616707 -51.552734 -7.617187 -3.222656 2.000000 -2.000000 0.000000 -74.033203 27.294924 -22.324219 -123.681328 12.417522 -6.421885 66.436035 30.108133 50.126579 -2.000000 2.000000 0.000000 57.597652 -0.048828 -37.109375 130.312683 27.032120 -15.765350 4.968557 -43.053505 -116.048492 9.939988 -0.341594 1.970765 16.620163 -6.125477 -1.911552 1.804265 4.495638 5.142496 -15.145733 0.351341 -16.691473 -2.299460 5.745150 -0.676971 18.358541 -9.965880 -12.982153 
